HIERARCHY
ROOT Hips
{
	OFFSET 0.00000 0.00000 0.00000
	CHANNELS 6 Xposition Yposition Zposition Zrotation Yrotation Xrotation 
	JOINT RightUpLegDummy
	{
		OFFSET 0 0 0
		CHANNELS 3 Zrotation Yrotation Xrotation
		JOINT RightUpLeg
		{
			OFFSET -3.52197 -3.41223 0.04002
			CHANNELS 3 Zrotation Yrotation Xrotation
			JOINT RightLeg
			{
				OFFSET 0.00006 -17.42390 1.60435
				CHANNELS 3 Zrotation Yrotation Xrotation
				JOINT RightFoot
				{
					OFFSET 0.06153 -16.50078 -1.63901
					CHANNELS 3 Zrotation Yrotation Xrotation
					JOINT RightToes
					{
						OFFSET 0.00298 -1.73825 3.34613
						CHANNELS 3 Zrotation Yrotation Xrotation
						End Site
						{
							OFFSET 0.00480 -0.05416 3.85043
						}
					}
				}
			}
		}
	}
	JOINT SpineDummy
	{
		OFFSET 0 0 0
		CHANNELS 3 Zrotation Yrotation Xrotation
		JOINT Spine
		{
			OFFSET 0.00000 4.68130 0.00000
			CHANNELS 3 Zrotation Yrotation Xrotation
			JOINT Spine1
			{
				OFFSET -0.00000 10.10138 0.05002
				CHANNELS 3 Zrotation Yrotation Xrotation
				JOINT HEadDummy
				{
					OFFSET 0 0 0
					CHANNELS 3 Zrotation Yrotation Xrotation
					JOINT Head
					{
						OFFSET -0.00000 3.43865 0.00438
						CHANNELS 3 Zrotation Yrotation Xrotation
						End Site
						{
							OFFSET -0.11417 5.02924 0.98962
						}
					}
				}
				JOINT LeftShoulder1Dummy
				{
					OFFSET 0 0 0
					CHANNELS 3 Zrotation Yrotation Xrotation
					JOINT LeftShoulder1
					{
						OFFSET 3.53937 -0.14262 -0.08662
						CHANNELS 3 Zrotation Yrotation Xrotation
						JOINT LeftArm
						{
							OFFSET 4.04833 -0.00133 0.12681
							CHANNELS 3 Zrotation Yrotation Xrotation
							JOINT LeftForeArm
							{
								OFFSET 10.33880 -0.01036 -0.55515
								CHANNELS 3 Zrotation Yrotation Xrotation
								JOINT LeftHand
								{
									OFFSET 8.69677 0.07543 0.40060
									CHANNELS 3 Zrotation Yrotation Xrotation
									End Site
									{
										OFFSET 5.28377 -0.21905 0.59205
									}
								}
							}
						}
					}
				}
				JOINT RightShoulderDummy
				{
					OFFSET 0 0 0
					CHANNELS 3 Zrotation Yrotation Xrotation
					JOINT RightShoulder
					{
						OFFSET -3.53937 -0.14262 -0.08660
						CHANNELS 3 Zrotation Yrotation Xrotation
						JOINT RightArm
						{
							OFFSET -4.04833 -0.00133 0.12683
							CHANNELS 3 Zrotation Yrotation Xrotation
							JOINT RightForeArm
							{
								OFFSET -10.37987 -0.01039 -0.55511
								CHANNELS 3 Zrotation Yrotation Xrotation
								JOINT RightHand
								{
									OFFSET -8.67398 0.07538 0.40058
									CHANNELS 3 Zrotation Yrotation Xrotation
									End Site
									{
										OFFSET -5.24810 -0.21916 0.59204
									}
								}
							}
						}
					}
				}
			}
		}
	}
	JOINT LeftUpLegDummy
	{
		OFFSET 0 0 0
		CHANNELS 3 Zrotation Yrotation Xrotation
		JOINT LeftUpLeg
		{
			OFFSET 3.52197 -3.41223 0.04002
			CHANNELS 3 Zrotation Yrotation Xrotation
			JOINT LeftLeg
			{
				OFFSET -0.00012 -17.42399 1.60337
				CHANNELS 3 Zrotation Yrotation Xrotation
				JOINT LeftFoot
				{
					OFFSET -0.09972 -16.50070 -1.63802
					CHANNELS 3 Zrotation Yrotation Xrotation
					JOINT LeftToes
					{
						OFFSET -0.01575 -1.73823 3.34611
						CHANNELS 3 Zrotation Yrotation Xrotation
						End Site
						{
							OFFSET 0.03150 -0.01868 3.85031
						}
					}
				}
			}
		}
	}
}
MOTION
Frames: 15
Frame Time: 0.033333
11.4325 38.6988 -8.5351 -179.6210 76.1149 176.9560 0.0000 0.0000 0.0000 -4.3993 -5.9173 -2.9455 -22.4562 -12.3506 56.6609 -1.4718 0.2596 6.7499 0.0000 -0.0000 0.0000 0.0000 0.0000 0.0000 0.6069 -0.4137 8.3651 3.5495 -1.0555 -0.0083 -0.0000 0.0000 -0.0000 -4.0013 5.4499 6.6384 -0.0000 0.0000 -0.0000 -33.8524 -2.6771 2.4650 -45.4462 -20.9837 -11.5306 -12.6784 5.2056 41.8811 14.5770 -5.1155 -1.2812 -0.0000 0.0000 -0.0000 34.8748 5.1851 3.5534 41.0616 0.7065 -16.8558 10.3085 6.6884 18.5794 -12.6376 2.5406 -0.8436 0.0000 0.0000 0.0000 -5.8277 -0.4392 -11.3066 4.9243 9.7947 23.6394 11.9329 -0.0196 -10.5437 0.0000 0.0000 -0.0000
12.2280 38.7743 -8.7244 -178.0610 72.1286 178.1620 0.0000 0.0000 0.0000 -2.3146 -3.4074 -6.0808 -21.7067 -11.4900 57.3918 -1.1636 0.1672 3.5177 0.0000 -0.0000 0.0000 0.0000 0.0000 0.0000 0.2843 -0.7541 9.0439 4.2925 -1.5414 -0.2043 -0.0000 0.0000 -0.0000 -3.3721 4.1374 6.6760 -0.0000 0.0000 -0.0000 -34.0483 -2.6879 2.4815 -45.6809 -22.5130 -9.1347 -13.4704 4.2127 40.3647 14.3778 -5.3626 -1.2918 -0.0000 0.0000 -0.0000 34.4615 5.1226 3.4916 41.5514 1.0883 -14.4774 10.2865 8.3878 17.2975 -11.6589 2.7397 -0.7948 0.0000 0.0000 0.0000 -5.5968 -1.1536 -9.3971 3.6312 7.0973 23.0536 12.9077 0.0719 -11.3708 0.0000 0.0000 -0.0000
13.0477 38.8263 -8.9438 -176.7570 68.2762 179.0290 0.0000 0.0000 0.0000 -0.6886 -1.1443 -9.0824 -20.4563 -11.2291 56.3932 -0.4056 0.0424 0.4241 0.0000 -0.0000 0.0000 0.0000 0.0000 0.0000 0.2822 -1.2865 9.7898 4.7933 -2.1825 -0.4192 -0.0000 0.0000 -0.0000 -3.1199 3.2577 6.3784 -0.0000 0.0000 -0.0000 -34.2930 -2.6931 2.4989 -45.7892 -23.6014 -7.0762 -13.9832 1.8123 39.3906 14.2641 -5.6306 -1.3123 -0.0000 0.0000 -0.0000 34.3305 5.1078 3.4743 41.4908 1.6416 -11.2217 10.0361 10.2233 15.1261 -11.2008 2.7513 -0.7634 0.0000 0.0000 0.0000 -5.0703 -1.2467 -7.5383 2.2356 3.9706 22.8126 13.4272 0.1859 -12.2922 0.0000 0.0000 -0.0000
13.8949 38.8603 -9.2013 -175.4050 64.8609 -179.9160 0.0000 0.0000 0.0000 0.6289 1.1255 -12.0426 -20.2887 -12.3192 53.9941 -0.1279 0.0035 -1.7495 0.0000 -0.0000 0.0000 0.0000 0.0000 0.0000 0.8348 -1.7943 10.2024 4.7923 -2.7001 -0.4960 -0.0000 0.0000 -0.0000 -2.9127 2.4821 5.9004 -0.0000 0.0000 -0.0000 -34.0377 -2.7154 2.4918 -46.4136 -24.5655 -5.4999 -14.1359 0.5833 38.8123 14.7291 -5.7212 -1.3679 -0.0000 0.0000 -0.0000 34.4702 5.1355 3.4976 41.2189 2.1456 -8.3117 9.4580 11.9671 12.5492 -11.4729 2.5665 -0.7657 0.0000 0.0000 0.0000 -4.1422 -0.9189 -5.9480 0.7284 0.7410 22.8185 13.5048 0.3108 -13.2895 0.0000 0.0000 -0.0000
14.7767 38.8925 -9.4888 -174.3080 62.2091 -179.1080 0.0000 0.0000 0.0000 1.4073 3.8040 -14.6592 -19.7248 -13.9566 50.0252 0.0512 -0.0147 -3.0391 0.0000 -0.0000 0.0000 0.0000 0.0000 0.0000 1.4670 -2.0677 10.5038 4.7498 -2.9598 -0.5339 -0.0000 0.0000 -0.0000 -2.7357 1.8647 5.5718 -0.0000 0.0000 -0.0000 -33.7114 -2.7173 2.4721 -47.1516 -25.2613 -5.0374 -14.0914 0.4939 38.9354 15.4370 -5.6965 -1.4336 -0.0000 0.0000 -0.0000 34.5439 5.1467 3.5086 40.9676 2.5447 -6.4482 8.8088 13.2887 10.1125 -11.9531 2.3818 -0.7813 0.0000 0.0000 0.0000 -3.0959 -0.4470 -4.2298 -0.5916 -2.0337 22.6766 13.4009 0.4297 -14.2651 0.0000 0.0000 -0.0000
15.6950 38.9378 -9.8001 -173.5600 60.1892 -178.7620 0.0000 0.0000 0.0000 1.4685 6.8003 -16.6444 -17.2965 -14.9805 44.1991 0.7793 -0.0669 -3.4848 0.0000 -0.0000 0.0000 0.0000 0.0000 0.0000 1.8071 -2.1832 10.9683 5.0193 -3.1089 -0.7035 -0.0000 0.0000 -0.0000 -2.7223 1.6919 5.5678 -0.0000 0.0000 -0.0000 -33.7761 -2.6798 2.4613 -47.4231 -25.4326 -5.3249 -14.0569 1.0826 39.1727 15.7379 -5.6547 -1.4574 -0.0000 0.0000 -0.0000 34.3934 5.1157 3.4829 40.7530 2.8733 -5.1476 8.3475 14.1681 7.7542 -12.2086 2.3316 -0.7936 0.0000 0.0000 0.0000 -2.1442 -0.0866 -2.1051 -1.4643 -4.1418 22.1801 13.2916 0.5404 -15.1895 0.0000 0.0000 -0.0000
16.6324 38.9733 -10.1413 -172.9850 58.3758 -178.5060 0.0000 0.0000 0.0000 0.9236 9.5775 -17.9748 -13.9961 -15.6154 36.6939 1.4330 -0.1138 -3.2156 0.0000 -0.0000 0.0000 0.0000 0.0000 0.0000 2.1573 -2.3710 11.3081 5.2014 -3.3109 -0.9092 -0.0000 0.0000 -0.0000 -2.7197 1.8365 5.7251 -0.0000 0.0000 -0.0000 -33.9083 -2.6499 2.4576 -47.3798 -25.1731 -5.8386 -14.1188 2.1841 39.2202 15.4699 -5.4727 -1.4087 -0.0000 0.0000 -0.0000 34.2473 5.0858 3.4581 40.5784 3.0603 -3.7521 7.9886 14.8983 5.2579 -12.1504 2.3714 -0.7936 0.0000 0.0000 0.0000 -1.2273 0.0688 0.0091 -2.0597 -5.8653 21.6354 13.3275 0.6632 -16.1762 0.0000 0.0000 -0.0000
17.5815 38.9826 -10.5168 -172.7490 56.7374 -178.4190 0.0000 0.0000 0.0000 -0.0980 11.5322 -18.5700 -11.1152 -16.9210 28.0453 1.5523 -0.1294 -2.4765 0.0000 -0.0000 0.0000 0.0000 0.0000 0.0000 2.6104 -2.6079 11.2938 4.9756 -3.4963 -0.8686 -0.0000 0.0000 -0.0000 -2.4894 1.7992 5.6589 -0.0000 0.0000 -0.0000 -33.7685 -2.6645 2.4547 -47.3424 -24.7381 -6.4624 -14.2076 3.7986 39.1318 14.9481 -5.0509 -1.3076 -0.0000 0.0000 -0.0000 34.2792 5.0918 3.4633 40.4966 3.0562 -2.3659 7.5984 15.6004 3.0039 -11.8784 2.3607 -0.7743 0.0000 0.0000 0.0000 -0.4379 0.0808 2.0637 -2.5800 -7.3467 20.9663 13.5088 0.7878 -17.1147 0.0000 0.0000 -0.0000
18.5440 39.0144 -10.9115 -173.2200 55.6402 -179.0960 0.0000 0.0000 0.0000 -0.9782 11.3660 -18.2113 -8.1775 -17.4457 18.6752 1.6376 -0.1463 -1.5958 0.0000 -0.0000 0.0000 0.0000 0.0000 0.0000 2.6746 -2.6211 11.3292 4.7057 -3.4701 -0.5832 -0.0000 0.0000 -0.0000 -2.1528 1.3866 5.2410 -0.0000 0.0000 -0.0000 -33.6731 -2.7014 2.4634 -47.1246 -24.1674 -7.4802 -14.1478 5.2788 39.2165 14.4844 -4.5503 -1.2062 -0.0000 0.0000 -0.0000 34.3208 5.1006 3.4705 40.5092 2.9303 -1.6085 7.3628 15.9934 1.7497 -11.5418 2.3081 -0.7468 0.0000 0.0000 0.0000 -0.0857 0.1120 4.8622 -2.8363 -8.4633 19.2069 13.6045 0.8346 -17.4474 0.0000 0.0000 -0.0000
19.5191 39.0708 -11.3073 -174.1220 55.0191 179.7860 0.0000 0.0000 0.0000 -0.2889 6.6340 -17.2474 -4.7654 -12.1472 9.5800 2.3747 -0.2037 -1.7717 0.0000 -0.0000 0.0000 0.0000 0.0000 0.0000 2.3195 -2.3788 11.5632 4.7013 -3.2386 -0.4012 -0.0000 0.0000 -0.0000 -2.0013 0.9031 4.8584 -0.0000 0.0000 -0.0000 -33.9061 -2.7198 2.4853 -46.5479 -23.3699 -9.1356 -13.7619 5.3039 40.1285 14.2000 -4.1433 -1.1346 -0.0000 0.0000 -0.0000 34.2312 5.0807 3.4547 40.5200 2.7024 -2.1303 7.6209 15.6768 1.9877 -11.1749 2.4731 -0.7367 0.0000 0.0000 0.0000 -0.0603 0.1957 8.2245 -2.7390 -9.1742 16.5202 13.4232 0.7947 -17.2043 0.0000 0.0000 -0.0000
20.5299 39.0531 -11.7127 -174.6170 54.2531 179.5150 0.0000 0.0000 0.0000 0.8567 1.0295 -16.9738 -1.8963 -3.9833 3.3285 3.8306 -0.2670 -3.7235 0.0000 -0.0000 0.0000 0.0000 0.0000 0.0000 2.2628 -2.2021 11.3288 4.6984 -3.0517 -0.5223 -0.0000 0.0000 -0.0000 -2.0131 0.6190 4.9131 -0.0000 0.0000 -0.0000 -34.1546 -2.7072 2.4959 -45.9109 -22.3436 -11.2051 -13.0514 5.2670 41.6313 14.1322 -3.7790 -1.0872 -0.0000 0.0000 -0.0000 34.2058 5.0678 3.4473 40.4057 2.3203 -4.4481 8.4504 14.4307 3.8211 -10.7587 2.8417 -0.7399 0.0000 0.0000 0.0000 0.2487 0.0771 10.4978 -2.7147 -9.5583 14.9975 12.9556 0.7927 -17.3943 0.0000 0.0000 -0.0000
21.6068 38.9216 -12.1360 -174.4920 53.1056 -179.6800 0.0000 0.0000 0.0000 0.6331 0.6653 -17.5799 -0.5535 -2.2083 1.1051 5.0191 -0.2856 -5.3497 0.0000 -0.0000 0.0000 0.0000 0.0000 0.0000 2.7166 -2.2540 10.3852 4.5108 -3.0542 -0.7734 -0.0000 0.0000 -0.0000 -1.9570 0.4854 5.2321 -0.0000 0.0000 -0.0000 -34.1729 -2.6821 2.4870 -45.3752 -21.0902 -13.4112 -12.1466 5.2323 43.4973 14.2578 -3.3792 -1.0510 -0.0000 0.0000 -0.0000 34.4380 5.1026 3.4815 40.1534 1.9038 -8.5133 9.5431 12.2629 7.0236 -10.5268 2.7675 -0.7170 0.0000 0.0000 0.0000 1.0451 -0.5817 11.1075 -3.0816 -9.6090 15.7608 12.2069 0.8558 -18.3059 0.0000 0.0000 -0.0000
22.7656 38.7323 -12.5708 -174.3380 52.0670 -179.1240 0.0000 0.0000 0.0000 0.8881 0.8764 -18.1230 -1.0427 -4.4617 2.3714 4.8659 -0.3279 -3.8855 0.0000 -0.0000 0.0000 0.0000 0.0000 0.0000 3.0532 -2.3210 9.5123 4.3992 -3.1083 -0.8188 -0.0000 0.0000 -0.0000 -1.8408 0.4170 5.3644 -0.0000 0.0000 -0.0000 -34.2962 -2.6802 2.4940 -44.5774 -19.5244 -15.4454 -11.3209 5.2013 45.0875 14.4717 -3.0451 -1.0281 -0.0000 0.0000 -0.0000 34.7740 5.1564 3.5328 39.9165 1.7456 -13.2456 10.4058 9.3934 10.9009 -10.7489 1.9803 -0.6657 0.0000 0.0000 0.0000 1.8774 -1.6310 11.4596 -3.6660 -9.3794 17.8836 11.1559 0.8629 -18.9908 0.0000 0.0000 -0.0000
23.9881 38.5608 -13.0253 -174.2450 51.5290 -179.4440 0.0000 0.0000 0.0000 1.3797 0.9552 -17.8755 -2.1224 -8.3289 5.5207 4.0075 -0.4121 0.4266 0.0000 -0.0000 0.0000 0.0000 0.0000 0.0000 3.1835 -2.2549 9.2563 4.4106 -3.0579 -0.5251 -0.0000 0.0000 -0.0000 -1.8735 0.4929 5.3300 -0.0000 0.0000 -0.0000 -34.7566 -2.7140 2.5366 -43.3677 -17.6472 -17.2190 -10.7005 5.1799 46.1554 14.7121 -2.8967 -1.0280 -0.0000 0.0000 -0.0000 34.9615 5.1814 3.5595 39.8913 1.9483 -16.8969 10.6678 6.2891 14.3123 -11.0660 1.5994 -0.6532 0.0000 0.0000 0.0000 2.6720 -2.0513 12.4832 -4.3206 -9.4330 20.7063 9.6658 0.7381 -18.7265 0.0000 0.0000 -0.0000
25.1904 38.4388 -13.4968 -173.6210 51.2836 -179.6610 0.0000 0.0000 0.0000 2.1219 0.8191 -17.1634 -2.7704 -10.2827 8.8298 3.8978 -0.5159 4.1206 0.0000 -0.0000 0.0000 0.0000 0.0000 0.0000 3.8907 -2.1740 9.3521 4.1400 -2.9157 -0.2733 -0.0000 0.0000 -0.0000 -2.0569 0.7475 5.5847 -0.0000 0.0000 -0.0000 -35.1110 -2.7434 2.5711 -42.3590 -15.6383 -18.8283 -10.1189 5.1662 46.8965 14.9960 -2.8503 -1.0428 -0.0000 0.0000 -0.0000 34.9929 5.1827 3.5629 40.1018 2.2594 -18.5312 10.3849 3.5413 16.5322 -10.7624 2.7514 -0.7305 0.0000 0.0000 0.0000 4.0029 -1.4320 13.0159 -5.2888 -9.5549 25.0010 7.4178 0.4931 -17.3280 0.0000 0.0000 -0.0000
